<svg width="288" height="63" viewBox="0 0 288 63" fill="none" xmlns="http://www.w3.org/2000/svg">
<path d="M11.76 29.868C11.76 31.3013 12.534 32.448 14.082 33.308C15.6873 34.1107 17.608 34.8273 19.844 35.458C22.1373 36.0313 24.4307 36.7193 26.724 37.522C29.0173 38.3247 30.938 39.7007 32.486 41.65C34.0913 43.542 34.894 45.95 34.894 48.874C34.894 53.002 33.2887 56.2413 30.078 58.592C26.9247 60.9427 22.94 62.118 18.124 62.118C13.8813 62.118 10.2407 61.2293 7.202 59.452C4.16333 57.6747 1.956 55.2093 0.58 52.056L8.578 47.412C10.0687 51.54 13.2507 53.604 18.124 53.604C22.9973 53.604 25.434 51.9987 25.434 48.788C25.434 47.412 24.6313 46.294 23.026 45.434C21.478 44.574 19.5573 43.8573 17.264 43.284C15.028 42.6533 12.7633 41.9367 10.47 41.134C8.17667 40.3313 6.22733 39.0127 4.622 37.178C3.074 35.286 2.3 32.9067 2.3 30.04C2.3 26.084 3.79067 22.902 6.772 20.494C9.81067 18.086 13.566 16.882 18.038 16.882C21.5927 16.882 24.746 17.6847 27.498 19.29C30.3073 20.838 32.4573 23.0167 33.948 25.826L26.122 30.212C24.6313 26.944 21.9367 25.31 18.038 25.31C16.2607 25.31 14.77 25.7113 13.566 26.514C12.362 27.2593 11.76 28.3773 11.76 29.868ZM90.9149 18H100.719L87.2169 61H78.1009L69.1569 32.018L60.1269 61H51.0109L37.5089 18H47.3129L55.6549 47.67L64.6849 18H73.5429L82.4869 47.67L90.9149 18ZM218.026 29.868C218.026 31.3013 218.8 32.448 220.348 33.308C221.953 34.1107 223.874 34.8273 226.11 35.458C228.403 36.0313 230.696 36.7193 232.99 37.522C235.283 38.3247 237.204 39.7007 238.752 41.65C240.357 43.542 241.16 45.95 241.16 48.874C241.16 53.002 239.554 56.2413 236.344 58.592C233.19 60.9427 229.206 62.118 224.39 62.118C220.147 62.118 216.506 61.2293 213.468 59.452C210.429 57.6747 208.222 55.2093 206.846 52.056L214.844 47.412C216.334 51.54 219.516 53.604 224.39 53.604C229.263 53.604 231.7 51.9987 231.7 48.788C231.7 47.412 230.897 46.294 229.292 45.434C227.744 44.574 225.823 43.8573 223.53 43.284C221.294 42.6533 219.029 41.9367 216.736 41.134C214.442 40.3313 212.493 39.0127 210.888 37.178C209.34 35.286 208.566 32.9067 208.566 30.04C208.566 26.084 210.056 22.902 213.038 20.494C216.076 18.086 219.832 16.882 224.304 16.882C227.858 16.882 231.012 17.6847 233.764 19.29C236.573 20.838 238.723 23.0167 240.214 25.826L232.388 30.212C230.897 26.944 228.202 25.31 224.304 25.31C222.526 25.31 221.036 25.7113 219.832 26.514C218.628 27.2593 218.026 28.3773 218.026 29.868ZM271.438 16.882C276.369 16.882 280.354 18.4587 283.392 21.612C286.431 24.7653 287.95 29.094 287.95 34.598V61H278.662V35.544C278.662 32.3333 277.802 29.868 276.082 28.148C274.362 26.428 272.012 25.568 269.03 25.568C265.762 25.568 263.125 26.6 261.118 28.664C259.112 30.6707 258.108 33.7667 258.108 37.952V61H248.82V0.799996H258.108V23.504C260.918 19.0893 265.361 16.882 271.438 16.882Z" fill="white"/>
<path d="M124.845 62.204C117.735 62.204 112.375 59.8247 108.763 55.066C105.151 50.25 103.975 44.6027 105.237 38.124C106.441 31.9893 109.422 26.9153 114.181 22.902C118.939 18.8313 124.615 16.796 131.209 16.796C137.859 16.796 142.962 19.204 146.517 24.02C150.129 28.7787 151.361 34.3113 150.215 40.618C149.183 46.6953 146.23 51.8267 141.357 56.012C136.541 60.14 131.037 62.204 124.845 62.204ZM125.619 51.368C128.887 51.368 131.811 50.2787 134.391 48.1C137.028 45.9213 138.633 43.026 139.207 39.414C139.895 35.8593 139.321 33.0213 137.487 30.9C135.652 28.7213 133.101 27.632 129.833 27.632C126.622 27.632 123.727 28.7213 121.147 30.9C118.624 33.0213 117.019 35.888 116.331 39.5C115.7 43.112 116.273 46.0073 118.051 48.186C119.885 50.3073 122.408 51.368 125.619 51.368ZM175.907 62.204C168.798 62.204 163.437 59.8247 159.825 55.066C156.213 50.25 155.038 44.6027 156.299 38.124C157.503 31.9893 160.484 26.9153 165.243 22.902C170.002 18.8313 175.678 16.796 182.271 16.796C188.922 16.796 194.024 19.204 197.579 24.02C201.191 28.7787 202.424 34.3113 201.277 40.618C200.245 46.6953 197.292 51.8267 192.419 56.012C187.603 60.14 182.099 62.204 175.907 62.204ZM176.681 51.368C179.949 51.368 182.873 50.2787 185.453 48.1C188.09 45.9213 189.696 43.026 190.269 39.414C190.957 35.8593 190.384 33.0213 188.549 30.9C186.714 28.7213 184.163 27.632 180.895 27.632C177.684 27.632 174.789 28.7213 172.209 30.9C169.686 33.0213 168.081 35.888 167.393 39.5C166.762 43.112 167.336 46.0073 169.113 48.186C170.948 50.3073 173.47 51.368 176.681 51.368Z" fill="#3BA4F3"/>
</svg>
