<svg width="536" height="115" viewBox="0 0 536 115" fill="none" xmlns="http://www.w3.org/2000/svg">
<path d="M21.6 54.08C21.6 56.7467 23.04 58.88 25.92 60.48C28.9067 61.9733 32.48 63.3067 36.64 64.48C40.9067 65.5467 45.1733 66.8267 49.44 68.32C53.7067 69.8133 57.28 72.3733 60.16 76C63.1467 79.52 64.64 84 64.64 89.44C64.64 97.12 61.6533 103.147 55.68 107.52C49.8133 111.893 42.4 114.08 33.44 114.08C25.5467 114.08 18.7733 112.427 13.12 109.12C7.46667 105.813 3.36 101.227 0.8 95.36L15.68 86.72C18.4533 94.4 24.3733 98.24 33.44 98.24C42.5067 98.24 47.04 95.2533 47.04 89.28C47.04 86.72 45.5467 84.64 42.56 83.04C39.68 81.44 36.1067 80.1067 31.84 79.04C27.68 77.8667 23.4667 76.5333 19.2 75.04C14.9333 73.5467 11.3067 71.0933 8.32 67.68C5.44 64.16 4 59.7333 4 54.4C4 47.04 6.77333 41.12 12.32 36.64C17.9733 32.16 24.96 29.92 33.28 29.92C39.8933 29.92 45.76 31.4133 50.88 34.4C56.1067 37.28 60.1067 41.3333 62.88 46.56L48.32 54.72C45.5467 48.64 40.5333 45.6 33.28 45.6C29.9733 45.6 27.2 46.3467 24.96 47.84C22.72 49.2267 21.6 51.3067 21.6 54.08ZM168.865 32H187.105L161.985 112H145.025L128.385 58.08L111.585 112H94.625L69.505 32H87.745L103.265 87.2L120.065 32H136.545L153.185 87.2L168.865 32ZM405.35 54.08C405.35 56.7467 406.79 58.88 409.67 60.48C412.657 61.9733 416.23 63.3067 420.39 64.48C424.657 65.5467 428.923 66.8267 433.19 68.32C437.457 69.8133 441.03 72.3733 443.91 76C446.897 79.52 448.39 84 448.39 89.44C448.39 97.12 445.403 103.147 439.43 107.52C433.563 111.893 426.15 114.08 417.19 114.08C409.297 114.08 402.523 112.427 396.87 109.12C391.217 105.813 387.11 101.227 384.55 95.36L399.43 86.72C402.203 94.4 408.123 98.24 417.19 98.24C426.257 98.24 430.79 95.2533 430.79 89.28C430.79 86.72 429.297 84.64 426.31 83.04C423.43 81.44 419.857 80.1067 415.59 79.04C411.43 77.8667 407.217 76.5333 402.95 75.04C398.683 73.5467 395.057 71.0933 392.07 67.68C389.19 64.16 387.75 59.7333 387.75 54.4C387.75 47.04 390.523 41.12 396.07 36.64C401.723 32.16 408.71 29.92 417.03 29.92C423.643 29.92 429.51 31.4133 434.63 34.4C439.857 37.28 443.857 41.3333 446.63 46.56L432.07 54.72C429.297 48.64 424.283 45.6 417.03 45.6C413.723 45.6 410.95 46.3467 408.71 47.84C406.47 49.2267 405.35 51.3067 405.35 54.08ZM504.723 29.92C513.896 29.92 521.309 32.8533 526.963 38.72C532.616 44.5867 535.443 52.64 535.443 62.88V112H518.163V64.64C518.163 58.6667 516.563 54.08 513.363 50.88C510.163 47.68 505.789 46.08 500.243 46.08C494.163 46.08 489.256 48 485.523 51.84C481.789 55.5733 479.923 61.3333 479.923 69.12V112H462.643V-7.62939e-06H479.923V42.24C485.149 34.0267 493.416 29.92 504.723 29.92Z" fill="black"/>
<path d="M231.99 114.24C218.763 114.24 208.79 109.813 202.07 100.96C195.35 92 193.163 81.4933 195.51 69.44C197.75 58.0267 203.297 48.5867 212.15 41.12C221.003 33.5467 231.563 29.76 243.83 29.76C256.203 29.76 265.697 34.24 272.31 43.2C279.03 52.0533 281.323 62.3467 279.19 74.08C277.27 85.3867 271.777 94.9333 262.71 102.72C253.75 110.4 243.51 114.24 231.99 114.24ZM233.43 94.08C239.51 94.08 244.95 92.0533 249.75 88C254.657 83.9467 257.643 78.56 258.71 71.84C259.99 65.2267 258.923 59.9467 255.51 56C252.097 51.9467 247.35 49.92 241.27 49.92C235.297 49.92 229.91 51.9467 225.11 56C220.417 59.9467 217.43 65.28 216.15 72C214.977 78.72 216.043 84.1067 219.35 88.16C222.763 92.1067 227.457 94.08 233.43 94.08ZM326.99 114.24C313.763 114.24 303.79 109.813 297.07 100.96C290.35 92 288.163 81.4933 290.51 69.44C292.75 58.0267 298.297 48.5867 307.15 41.12C316.003 33.5467 326.563 29.76 338.83 29.76C351.203 29.76 360.697 34.24 367.31 43.2C374.03 52.0533 376.323 62.3467 374.19 74.08C372.27 85.3867 366.777 94.9333 357.71 102.72C348.75 110.4 338.51 114.24 326.99 114.24ZM328.43 94.08C334.51 94.08 339.95 92.0533 344.75 88C349.657 83.9467 352.643 78.56 353.71 71.84C354.99 65.2267 353.923 59.9467 350.51 56C347.097 51.9467 342.35 49.92 336.27 49.92C330.297 49.92 324.91 51.9467 320.11 56C315.417 59.9467 312.43 65.28 311.15 72C309.977 78.72 311.043 84.1067 314.35 88.16C317.763 92.1067 322.457 94.08 328.43 94.08Z" fill="#3BA4F3"/>
</svg>
