<svg width="45" height="45" viewBox="0 0 45 45" fill="none" xmlns="http://www.w3.org/2000/svg">
<path d="M0 22.5C0 10.0736 10.0736 0 22.5 0C34.9264 0 45 10.0736 45 22.5C45 34.9264 34.9264 45 22.5 45C10.0736 45 0 34.9264 0 22.5Z" fill="#3BA4F3"/>
<mask id="mask0_278_85" style="mask-type:alpha" maskUnits="userSpaceOnUse" x="8" y="8" width="29" height="29">
<rect x="8" y="8" width="29" height="29" fill="white"/>
</mask>
<g mask="url(#mask0_278_85)">
<path d="M22.5008 34.5833C20.8292 34.5833 19.2584 34.2661 17.7883 33.6317C16.3181 32.9974 15.0393 32.1364 13.9518 31.0489C12.8643 29.9614 12.0034 28.6826 11.369 27.2125C10.7346 25.7423 10.4174 24.1715 10.4174 22.5C10.4174 20.8284 10.7346 19.2576 11.369 17.7875C12.0034 16.3173 12.8643 15.0385 13.9518 13.951C15.0393 12.8635 16.3181 12.0026 17.7883 11.3682C19.2584 10.7338 20.8292 10.4166 22.5008 10.4166C24.1723 10.4166 25.7431 10.7338 27.2133 11.3682C28.6834 12.0026 29.9622 12.8635 31.0497 13.951C32.1372 15.0385 32.9981 16.3173 33.6325 17.7875C34.2669 19.2576 34.5841 20.8284 34.5841 22.5V24.252C34.5841 25.4402 34.1763 26.4522 33.3607 27.288C32.545 28.1237 31.5431 28.5416 30.3549 28.5416C29.6501 28.5416 28.9855 28.3906 28.3612 28.0885C27.7369 27.7864 27.2133 27.3534 26.7903 26.7895C26.2063 27.3736 25.5468 27.8116 24.8117 28.1036C24.0766 28.3956 23.3063 28.5416 22.5008 28.5416C20.8292 28.5416 19.4044 27.9526 18.2263 26.7744C17.0481 25.5963 16.4591 24.1715 16.4591 22.5C16.4591 20.8284 17.0481 19.4036 18.2263 18.2255C19.4044 17.0474 20.8292 16.4583 22.5008 16.4583C24.1723 16.4583 25.5971 17.0474 26.7752 18.2255C27.9534 19.4036 28.5424 20.8284 28.5424 22.5V24.252C28.5424 24.7757 28.7136 25.2187 29.056 25.5812C29.3983 25.9437 29.8313 26.125 30.3549 26.125C30.8785 26.125 31.3115 25.9437 31.6539 25.5812C31.9962 25.2187 32.1674 24.7757 32.1674 24.252V22.5C32.1674 19.8013 31.231 17.5156 29.358 15.6427C27.4851 13.7698 25.1994 12.8333 22.5008 12.8333C19.8021 12.8333 17.5164 13.7698 15.6435 15.6427C13.7705 17.5156 12.8341 19.8013 12.8341 22.5C12.8341 25.1986 13.7705 27.4843 15.6435 29.3573C17.5164 31.2302 19.8021 32.1666 22.5008 32.1666H28.5424V34.5833H22.5008ZM22.5008 26.125C23.5077 26.125 24.3636 25.7725 25.0685 25.0677C25.7733 24.3628 26.1258 23.5069 26.1258 22.5C26.1258 21.493 25.7733 20.6371 25.0685 19.9323C24.3636 19.2274 23.5077 18.875 22.5008 18.875C21.4938 18.875 20.6379 19.2274 19.933 19.9323C19.2282 20.6371 18.8758 21.493 18.8758 22.5C18.8758 23.5069 19.2282 24.3628 19.933 25.0677C20.6379 25.7725 21.4938 26.125 22.5008 26.125Z" fill="white"/>
</g>
</svg>
