<svg width="45" height="45" viewBox="0 0 45 45" fill="none" xmlns="http://www.w3.org/2000/svg">
<path d="M0 22.5C0 10.0736 10.0736 0 22.5 0C34.9264 0 45 10.0736 45 22.5C45 34.9264 34.9264 45 22.5 45C10.0736 45 0 34.9264 0 22.5Z" fill="#3BA4F3"/>
<path d="M24.6696 24.6696C22.9018 26.4938 22.7732 28.7679 22.6205 33.75C27.2652 33.75 30.4714 33.7339 32.1268 32.1268C33.7339 30.4714 33.75 27.1125 33.75 22.6205C28.7679 22.7812 26.4938 22.9018 24.6696 24.6696ZM11.25 22.6205C11.25 27.1125 11.2661 30.4714 12.8732 32.1268C14.5286 33.7339 17.7348 33.75 22.3795 33.75C22.2188 28.7679 22.0982 26.4938 20.3304 24.6696C18.5062 22.9018 16.2321 22.7732 11.25 22.6205ZM22.3795 11.25C17.7429 11.25 14.5286 11.2661 12.8732 12.8732C11.2661 14.5286 11.25 17.8875 11.25 22.3795C16.2321 22.2188 18.5062 22.0982 20.3304 20.3304C22.0982 18.5062 22.2268 16.2321 22.3795 11.25ZM24.6696 20.3304C22.9018 18.5062 22.7732 16.2321 22.6205 11.25C27.2652 11.25 30.4714 11.2661 32.1268 12.8732C33.7339 14.5286 33.75 17.8875 33.75 22.3795C28.7679 22.2188 26.4938 22.0982 24.6696 20.3304Z" fill="white"/>
<path d="M33.75 22.6205V22.3795C28.7679 22.2188 26.4938 22.0982 24.6696 20.3304C22.9018 18.5062 22.7732 16.2321 22.6205 11.25H22.3795C22.2188 16.2321 22.0982 18.5062 20.3304 20.3304C18.5062 22.0982 16.2321 22.2268 11.25 22.3795V22.6205C16.2321 22.7812 18.5062 22.9018 20.3304 24.6696C22.0982 26.4938 22.2268 28.7679 22.3795 33.75H22.6205C22.7812 28.7679 22.9018 26.4938 24.6696 24.6696C26.4938 22.9018 28.7679 22.7732 33.75 22.6205Z" fill="#3BA4F3"/>
</svg>
