<svg width="356" height="108" viewBox="0 0 356 108" fill="none" xmlns="http://www.w3.org/2000/svg">
<path d="M45.56 22.32C54.12 22.32 60.68 25.6 65.24 32.16C69.88 38.64 71.48 46.24 70.04 54.96C68.68 63.44 64.96 70.68 58.88 76.68C52.8 82.68 45.32 85.68 36.44 85.68C27.8 85.68 21.56 82.4 17.72 75.84L16.28 84H0.8L15.56 -5.72205e-06H31.04L25.64 30.48C31.08 25.04 37.72 22.32 45.56 22.32ZM54.56 53.88C55.44 48.84 54.6 44.8 52.04 41.76C49.56 38.64 45.92 37.08 41.12 37.08C36.32 37.08 32.08 38.64 28.4 41.76C24.72 44.88 22.44 48.96 21.56 54C20.68 59.04 21.56 63.12 24.2 66.24C26.84 69.36 30.56 70.92 35.36 70.92C40.16 70.92 44.36 69.36 47.96 66.24C51.56 63.04 53.76 58.92 54.56 53.88ZM329.274 22.32C337.754 22.32 344.274 25.64 348.834 32.28C353.474 38.84 355.074 46.48 353.634 55.2C352.354 63.68 348.674 70.88 342.594 76.8C336.514 82.72 329.154 85.68 320.514 85.68C311.714 85.68 305.314 82.32 301.314 75.6L295.674 108H280.194L294.954 24H310.434L309.354 30.24C314.634 24.96 321.274 22.32 329.274 22.32ZM338.154 54.12C339.034 49.08 338.194 45 335.634 41.88C333.154 38.68 329.514 37.08 324.714 37.08C320.154 37.08 316.074 38.48 312.474 41.28C308.954 44.08 306.594 47.76 305.394 52.32L304.914 55.32C304.354 60.12 305.434 63.92 308.154 66.72C310.874 69.52 314.514 70.92 319.074 70.92C323.714 70.92 327.834 69.44 331.434 66.48C335.034 63.44 337.274 59.32 338.154 54.12Z" fill="black"/>
<path d="M90.5572 31.08C97.3572 25.24 105.197 22.32 114.077 22.32C122.957 22.32 129.957 25.4 135.077 31.56C140.197 37.64 141.917 45.12 140.237 54C140.077 55.76 139.517 57.88 138.557 60.36H93.1972C93.5172 64.2 94.9972 67.04 97.6372 68.88C100.277 70.72 103.597 71.64 107.597 71.64C113.597 71.64 118.517 69.6 122.357 65.52L133.277 74.28C126.557 81.88 117.597 85.68 106.397 85.68C96.4772 85.68 88.9172 82.52 83.7172 76.2C78.5972 69.88 76.7972 62.08 78.3172 52.8C79.6772 44.08 83.7572 36.84 90.5572 31.08ZM95.3572 48.24H125.837C125.757 44.16 124.517 41.16 122.117 39.24C119.797 37.24 116.797 36.24 113.117 36.24C109.117 36.24 105.557 37.28 102.437 39.36C99.3972 41.44 97.0372 44.4 95.3572 48.24ZM160.049 31.08C166.849 25.24 174.689 22.32 183.569 22.32C192.449 22.32 199.449 25.4 204.569 31.56C209.689 37.64 211.409 45.12 209.729 54C209.569 55.76 209.009 57.88 208.049 60.36H162.689C163.009 64.2 164.489 67.04 167.129 68.88C169.769 70.72 173.089 71.64 177.089 71.64C183.089 71.64 188.009 69.6 191.849 65.52L202.769 74.28C196.049 81.88 187.089 85.68 175.889 85.68C165.969 85.68 158.409 82.52 153.209 76.2C148.089 69.88 146.289 62.08 147.809 52.8C149.169 44.08 153.249 36.84 160.049 31.08ZM164.849 48.24H195.329C195.249 44.16 194.009 41.16 191.609 39.24C189.289 37.24 186.289 36.24 182.609 36.24C178.609 36.24 175.049 37.28 171.929 39.36C168.889 41.44 166.529 44.4 164.849 48.24ZM229.542 31.08C236.342 25.24 244.182 22.32 253.062 22.32C261.942 22.32 268.942 25.4 274.062 31.56C279.182 37.64 280.902 45.12 279.222 54C279.062 55.76 278.502 57.88 277.542 60.36H232.182C232.502 64.2 233.982 67.04 236.622 68.88C239.262 70.72 242.582 71.64 246.582 71.64C252.582 71.64 257.502 69.6 261.342 65.52L272.262 74.28C265.542 81.88 256.582 85.68 245.382 85.68C235.462 85.68 227.902 82.52 222.702 76.2C217.582 69.88 215.782 62.08 217.302 52.8C218.662 44.08 222.742 36.84 229.542 31.08ZM234.342 48.24H264.822C264.742 44.16 263.502 41.16 261.102 39.24C258.782 37.24 255.782 36.24 252.102 36.24C248.102 36.24 244.542 37.28 241.422 39.36C238.382 41.44 236.022 44.4 234.342 48.24Z" fill="#3BA4F3"/>
</svg>
