<svg width="130" height="66" viewBox="0 0 130 66" fill="none" xmlns="http://www.w3.org/2000/svg">
<path fill-rule="evenodd" clip-rule="evenodd" d="M10.6721 15.1559L10.6721 15.1558L12.2423 2.55976V2.47635C12.2423 1.62543 11.8298 0.897869 11.088 0.465958C10.458 0.0990789 9.68665 0 8.95255 0C8.17183 0 7.36938 0.135876 6.70807 0.575954C5.9884 1.05487 5.60494 1.78009 5.51047 2.5859L5.50985 2.59125L0 47.4529V47.535C0 48.1758 0.176864 48.7921 0.560664 49.3292C0.935151 49.8534 1.45189 50.2264 2.0178 50.4904C3.11486 51.0023 4.59365 51.1957 6.30993 51.1957C9.75645 51.1957 12.8202 50.6538 15.4678 49.5267L15.4755 49.5234L15.4831 49.52C18.0764 48.378 20.1962 46.8854 21.7902 45.0158L21.7939 45.0115L21.7975 45.0072C24.9325 41.2672 26.5341 37.0725 26.5341 32.4616C26.5341 29.2107 25.6968 26.384 23.9477 24.0666C22.1706 21.6629 19.6745 20.4567 16.6107 20.4567C14.8816 20.4567 13.6187 20.5885 11.9076 21.3387C11.0088 21.7327 9.8997 22.4956 9.74244 22.6135L10.6721 15.1559ZM7.75609 39.085L7.75598 39.086L7.01198 45.1583C7.2397 45.1636 7.49076 45.1664 7.76606 45.1664C10.3674 45.1664 12.5093 44.5135 14.2609 43.2653C16.1413 41.9149 17.4238 40.3587 18.1759 38.6069L18.1799 38.5976L18.184 38.5884C19.0087 36.7443 19.4152 34.8671 19.4152 32.9461C19.4152 31.005 18.9637 29.4967 18.1488 28.3345L18.1378 28.3189L18.1273 28.303C17.386 27.1793 16.4816 26.7014 15.3164 26.7014C13.4248 26.7014 11.8767 27.5477 10.6063 29.4843C9.28875 31.493 8.30326 34.6457 7.75609 39.085Z" fill="black"/>
<path fill-rule="evenodd" clip-rule="evenodd" d="M122.882 41.9681L123.445 43.272C124.999 41.9152 126.282 40.3251 127.29 38.5083C129.099 35.3917 130 31.9673 130 28.2625C130 24.8492 129.115 22.0331 127.13 20.0486C125.256 18.1395 122.932 17.1728 120.238 17.1728C117.589 17.1728 115.247 18.0113 113.227 19.6145V19.5953C113.227 18.9398 113.008 18.2346 112.385 17.737C111.819 17.2854 111.124 17.1728 110.531 17.1728C109.602 17.1728 108.707 17.2565 108.032 17.5624L108.009 17.5729L107.986 17.5842C107.13 18.0118 106.724 18.8145 106.566 19.6005L106.556 19.65L101.147 63.4948V63.5774C101.147 64.2709 101.403 64.9831 102.057 65.4665C102.635 65.8939 103.339 66 103.951 66C104.851 66 105.724 65.881 106.435 65.5112C107.223 65.1013 107.763 64.4017 107.877 63.48L109.986 47.8914C112.628 47.7993 115.059 47.3933 117.267 46.6584L117.276 46.6555L117.284 46.6525C119.772 45.7873 121.843 44.6716 123.445 43.2722L122.882 41.9683L122.882 41.9681ZM120.541 36.5466C121.943 34.4359 122.935 31.6411 122.935 28.8008C122.935 27.1145 122.54 25.8003 121.828 24.7776L121.828 24.7772C121.208 23.8862 120.331 23.4175 118.998 23.4175C117.636 23.4175 116.458 23.8329 115.439 24.7354L115.439 24.7354C114.994 25.1298 114.579 25.6172 114.192 26.2035C112.87 28.2072 111.897 31.3543 111.385 35.7916L110.683 41.8816C114.163 41.846 117.025 40.5809 119.356 38.0621C119.772 37.6124 120.171 37.1034 120.54 36.5469L120.541 36.5466Z" fill="black"/>
<path fill-rule="evenodd" clip-rule="evenodd" d="M43.6332 41.3099L43.6181 41.3165C42.7562 41.6966 41.8771 41.8824 40.9703 41.8824C38.899 41.8824 37.4993 41.2552 36.5539 40.1533C35.7491 39.1864 35.2149 37.8464 35.0435 36.0405C37.0822 35.9585 38.997 35.6953 40.7827 35.2451C42.8541 34.7227 44.7518 33.9486 46.4676 32.9135L46.4712 32.9113C50.0763 30.7209 52.0801 27.7481 52.0801 24.0097C52.0801 21.8901 51.2981 20.12 49.6582 18.8992C48.1127 17.713 46.1871 17.1728 43.9904 17.1728C40.301 17.1728 36.8047 18.622 33.5252 21.3627L33.5202 21.3669L33.5153 21.3711C31.8601 22.7815 30.5287 24.6611 29.4939 26.9566C28.4367 29.3017 27.919 31.8794 27.919 34.6687C27.919 38.696 28.9496 42.0096 31.1927 44.4145L31.2009 44.4233L31.2093 44.4319C33.5134 46.8155 36.769 47.9118 40.7546 47.9118C42.7597 47.9118 44.7794 47.3801 46.8001 46.3723C47.7889 45.8878 48.6113 45.4031 49.2066 44.9098C49.7342 44.4725 50.4082 43.7646 50.4082 42.7976C50.4082 42.0103 50.1958 41.2562 49.8182 40.5493L49.8181 40.5492C49.4354 39.8329 48.736 39.0292 47.6038 39.0292H47.1474L45.8486 40.0206L45.8299 40.036C45.3426 40.4365 44.6314 40.8633 43.6546 41.3003C43.6474 41.3035 43.6403 41.3067 43.6332 41.3099ZM38.2181 29.7537C39.6398 29.4446 40.9639 28.9766 42.1944 28.3541L42.1977 28.3524L42.201 28.3508C44.6498 27.1286 45.4466 25.8225 45.4466 24.548C45.4466 23.9609 45.2747 23.7033 45.0817 23.5468L45.0458 23.5177L45.012 23.4862C44.7744 23.2649 44.4106 23.0945 43.7747 23.0945C42.2687 23.0945 40.5565 23.7888 38.6148 25.4597L38.6097 25.4641L38.6045 25.4684C38.001 25.9773 37.4708 26.5459 37.015 27.1776C36.3908 28.0427 35.9062 29.0261 35.5647 30.1365C36.4846 30.0662 37.3688 29.9383 38.2181 29.7537Z" fill="#3BA4F3"/>
<path fill-rule="evenodd" clip-rule="evenodd" d="M58.384 21.3627C61.6635 18.622 65.1598 17.1728 68.849 17.1728C71.0459 17.1728 72.9716 17.7129 74.5167 18.8992C76.157 20.1201 76.9386 21.8904 76.9386 24.0097C76.9386 27.748 74.9352 30.7208 71.3297 32.9113L71.3279 32.9124L71.3261 32.9135C68.1316 34.8409 64.3061 35.8634 59.9023 36.0405C60.0737 37.8464 60.608 39.1864 61.4127 40.1533C62.3581 41.2552 63.7578 41.8824 65.8291 41.8824C66.749 41.8824 67.6399 41.6913 68.5129 41.3004L68.5133 41.3003C69.4905 40.8631 70.2016 40.4365 70.688 40.0363L70.707 40.0207L72.0059 39.0292H72.4624C73.5939 39.0292 74.2936 39.8316 74.6765 40.5489L74.6766 40.5491C75.0548 41.2565 75.2668 42.0107 75.2668 42.7976C75.2668 43.7645 74.593 44.4723 74.0652 44.9097C73.47 45.4031 72.6476 45.8878 71.6586 46.3722C69.6382 47.3801 67.6187 47.9118 65.6134 47.9118C61.6279 47.9118 58.3722 46.8155 56.0681 44.4319L56.0598 44.4233L56.0516 44.4145C53.8084 42.0096 52.7778 38.696 52.7778 34.6687C52.7778 31.8794 53.2955 29.3017 54.3527 26.9566C55.3875 24.6611 56.7189 22.7815 58.3741 21.3711L58.3791 21.3669L58.384 21.3627ZM63.4736 25.4597C65.4153 23.7888 67.1273 23.0945 68.6332 23.0945C69.2695 23.0945 69.6329 23.2648 69.8706 23.4862L69.9045 23.5179L69.9406 23.5471C70.1334 23.7033 70.3051 23.9604 70.3051 24.548C70.3051 25.8226 69.5085 27.1286 67.0596 28.3507L67.0562 28.3524L67.0529 28.3541C65.0875 29.3486 62.8833 29.9486 60.4235 30.1365C61.0145 28.2155 62.0332 26.6745 63.4634 25.4684L63.4685 25.4641L63.4736 25.4597Z" fill="#3BA4F3"/>
<path fill-rule="evenodd" clip-rule="evenodd" d="M93.7078 17.1728C90.0188 17.1728 86.5223 18.622 83.2426 21.3627L83.2376 21.3669L83.2325 21.3712C81.578 22.7815 80.2461 24.661 79.2113 26.9566C78.154 29.3017 77.6364 31.8794 77.6364 34.6687C77.6364 38.696 78.667 42.0096 80.9101 44.4145L80.9184 44.4233L80.9268 44.432C83.2313 46.8155 86.4868 47.9118 90.4719 47.9118C92.4775 47.9118 94.497 47.3801 96.5175 46.3722C97.5064 45.8878 98.3288 45.4031 98.9241 44.9097C99.4518 44.4723 100.126 43.7645 100.126 42.7976C100.126 42.0107 99.9137 41.2565 99.5354 40.5491L99.5353 40.5489C99.1524 39.8316 98.4528 39.0292 97.3212 39.0292H96.8647L95.5658 40.0207L95.5468 40.0363C95.0604 40.4365 94.3493 40.8631 93.3721 41.3003L93.3718 41.3004C92.4988 41.6913 91.6078 41.8824 90.6877 41.8824C88.6166 41.8824 87.217 41.2553 86.2713 40.1534C85.4668 39.1863 84.9324 37.8462 84.7609 36.0405C89.1648 35.8634 92.9905 34.8409 96.185 32.9135L96.1885 32.9113C99.794 30.7208 101.797 27.748 101.797 24.0097C101.797 21.8904 101.016 20.1201 99.3756 18.8992C97.8305 17.7129 95.9047 17.1728 93.7078 17.1728ZM93.4921 23.0945C91.9861 23.0945 90.2744 23.7888 88.332 25.4598L88.327 25.4641L88.322 25.4683C86.892 26.6744 85.8733 28.2155 85.2822 30.1365C87.742 29.9486 89.9464 29.3485 91.9117 28.3541L91.915 28.3524L91.9184 28.3507C94.3673 27.1286 95.1639 25.8226 95.1639 24.548C95.1639 23.9604 94.9922 23.7033 94.7994 23.5471L94.7634 23.5179L94.7294 23.4862C94.4917 23.2648 94.1283 23.0945 93.4921 23.0945Z" fill="#3BA4F3"/>
</svg>
