<svg width="174" height="88" viewBox="0 0 174 88" fill="none" xmlns="http://www.w3.org/2000/svg">
<path fill-rule="evenodd" clip-rule="evenodd" d="M14.2842 20.2078L16.3859 3.41301V3.30179C16.3859 2.16724 15.8337 1.19716 14.8409 0.621277C13.9976 0.132105 12.9652 0 11.9826 0C10.9377 0 9.86364 0.181168 8.9785 0.767939C8.01525 1.40649 7.50199 2.37346 7.37556 3.44787L7.37472 3.455L0 63.2705V63.3801C0 64.2344 0.236726 65.0561 0.750427 65.7723C1.25166 66.4712 1.94329 66.9685 2.70075 67.3206C4.16912 68.003 6.14842 68.261 8.4456 68.261C13.0586 68.261 17.1593 67.5384 20.7031 66.0356L20.7133 66.0312L20.7235 66.0267C24.1946 64.504 27.0318 62.5139 29.1654 60.021L29.1702 60.0153L29.1751 60.0096C33.3713 55.0229 35.5148 49.4299 35.5148 43.2822C35.5148 38.9476 34.3941 35.1787 32.053 32.0889C29.6745 28.8839 26.3335 27.2757 22.2329 27.2757C19.9185 27.2757 18.2281 27.4514 15.9379 28.4516C14.7349 28.977 13.2504 29.9941 13.0399 30.1514L14.2842 20.2078ZM10.3812 52.1134L10.3811 52.1146L9.38526 60.2111C9.69006 60.2181 10.0261 60.2218 10.3946 60.2218C13.8764 60.2218 16.7432 59.3513 19.0876 57.687C21.6044 55.8865 23.321 53.8116 24.3277 51.4758L24.3331 51.4634L24.3386 51.4512C25.4425 48.9924 25.9864 46.4894 25.9864 43.9282C25.9864 41.3399 25.3822 39.3289 24.2915 37.7794L24.2768 37.7585L24.2627 37.7373C23.2705 36.2391 22.0599 35.6019 20.5004 35.6019C17.9685 35.6019 15.8964 36.7303 14.1962 39.3125C12.4326 41.9907 11.1136 46.1943 10.3812 52.1134Z" fill="white"/>
<path fill-rule="evenodd" clip-rule="evenodd" d="M164.473 55.9575L165.227 57.696C167.307 55.8869 169.024 53.7668 170.373 51.3444C172.794 47.189 174 42.6231 174 37.6833C174 33.1323 172.815 29.3775 170.158 26.7314C167.65 24.1859 164.54 22.8971 160.935 22.8971C157.388 22.8971 154.254 24.0151 151.551 26.1527V26.1271C151.551 25.2531 151.256 24.3127 150.423 23.6493C149.666 23.0471 148.736 22.8971 147.941 22.8971C146.698 22.8971 145.5 23.0087 144.596 23.4166L144.566 23.4305L144.535 23.4456C143.389 24.0157 142.846 25.0861 142.635 26.134L142.621 26.1999L135.381 84.6597V84.7698C135.381 85.6945 135.724 86.6442 136.599 87.2887C137.373 87.8585 138.315 88 139.135 88C140.339 88 141.507 87.8414 142.459 87.3483C143.514 86.8018 144.236 85.869 144.39 84.64L147.212 63.8552C150.748 63.7324 154.001 63.1911 156.958 62.2112L156.969 62.2073L156.981 62.2033C160.31 61.0498 163.082 59.5622 165.227 57.6963L164.473 55.9578L164.473 55.9575ZM161.339 48.7288C163.216 45.9146 164.544 42.1882 164.544 38.4011C164.544 36.1527 164.015 34.4003 163.062 33.0368L163.061 33.0363C162.232 31.8482 161.059 31.2233 159.274 31.2233C157.451 31.2233 155.875 31.7771 154.511 32.9805C153.915 33.5063 153.359 34.1562 152.841 34.938C151.072 37.6095 149.769 41.8057 149.084 47.7221L148.145 55.8422C152.803 55.7947 156.633 54.1079 159.754 50.7494C160.311 50.1498 160.844 49.4712 161.339 48.7291L161.339 48.7288Z" fill="white"/>
<path fill-rule="evenodd" clip-rule="evenodd" d="M58.4013 55.0798L58.3812 55.0887C57.2275 55.5954 56.0509 55.8432 54.8372 55.8432C52.0648 55.8432 50.1914 55.0069 48.926 53.5378C47.8489 52.2486 47.1338 50.4618 46.9044 48.054C49.6331 47.9447 52.196 47.5938 54.586 46.9934C57.3586 46.297 59.8986 45.2648 62.195 43.8847L62.1999 43.8817C67.0252 40.9611 69.7072 36.9974 69.7072 32.0129C69.7072 29.1869 68.6605 26.8267 66.4655 25.1989C64.397 23.6173 61.8196 22.8971 58.8795 22.8971C53.9413 22.8971 49.2616 24.8294 44.8722 28.4836L44.8656 28.4891L44.859 28.4947C42.6435 30.3754 40.8615 32.8815 39.4764 35.9421C38.0614 39.0689 37.3685 42.5059 37.3685 46.2249C37.3685 51.5947 38.7479 56.0128 41.7503 59.2193L41.7613 59.231L41.7724 59.2426C44.8564 62.4207 49.2139 63.8824 54.5484 63.8824C57.2322 63.8824 59.9355 63.1734 62.6401 61.8297C63.9636 61.1837 65.0643 60.5374 65.8611 59.8797C66.5674 59.2966 67.4695 58.3528 67.4695 57.0634C67.4695 56.0137 67.1851 55.0082 66.6797 54.0658C66.1674 53.1107 65.2312 52.039 63.7159 52.039H63.1049L61.3666 53.3608L61.3415 53.3814C60.6894 53.9154 59.7374 54.4843 58.43 55.0671C58.4204 55.0714 58.4109 55.0756 58.4013 55.0798ZM51.1535 39.6716C53.0564 39.2595 54.8286 38.6355 56.4756 37.8054L56.48 37.8032L56.4844 37.801C59.762 36.1714 60.8285 34.43 60.8285 32.7307C60.8285 31.9479 60.5984 31.6045 60.3401 31.3957L60.2921 31.3569L60.2469 31.315C59.9288 31.0199 59.4419 30.7926 58.5908 30.7926C56.575 30.7926 54.2833 31.7185 51.6844 33.9462L51.6776 33.9521L51.6707 33.9579C50.8629 34.6365 50.1532 35.3946 49.5432 36.2368C48.7076 37.3903 48.0591 38.7015 47.6019 40.182C48.8332 40.0883 50.0167 39.9178 51.1535 39.6716Z" fill="#3BA4F3"/>
<path fill-rule="evenodd" clip-rule="evenodd" d="M78.1448 28.4836C82.5342 24.8294 87.2139 22.8971 92.1517 22.8971C95.0922 22.8971 97.6697 23.6172 99.7378 25.1989C101.933 26.8269 102.979 29.1871 102.979 32.0129C102.979 36.9974 100.298 40.9611 95.472 43.8818L95.4697 43.8832L95.4673 43.8846C91.1916 46.4545 86.0712 47.8179 80.177 48.054C80.4064 50.4618 81.1214 52.2486 82.1986 53.5378C83.4639 55.0069 85.3374 55.8432 88.1097 55.8432C89.341 55.8432 90.5334 55.5884 91.7019 55.0672L91.7024 55.067C93.0104 54.4842 93.9621 53.9154 94.6132 53.3818L94.6386 53.361L96.3772 52.039H96.9881C98.5027 52.039 99.4391 53.1089 99.9516 54.0651L99.9518 54.0654C100.458 55.0087 100.742 56.0143 100.742 57.0634C100.742 58.3526 99.8399 59.2965 99.1335 59.8797C98.3367 60.5374 97.236 61.1837 95.9123 61.8297C93.208 63.1734 90.5051 63.8824 87.821 63.8824C82.4865 63.8824 78.129 62.4207 75.045 59.2426L75.0338 59.231L75.0229 59.2193C72.0205 56.0128 70.6411 51.5947 70.6411 46.2249C70.6411 42.5059 71.3339 39.0689 72.749 35.9421C74.134 32.8815 75.916 30.3754 78.1315 28.4947L78.1381 28.4891L78.1448 28.4836ZM84.957 33.9462C87.5559 31.7184 89.8473 30.7926 91.863 30.7926C92.7146 30.7926 93.201 31.0198 93.5191 31.315L93.5646 31.3572L93.6128 31.3962C93.8708 31.6044 94.1007 31.9472 94.1007 32.7307C94.1007 34.4301 93.0345 36.1715 89.7567 37.801L89.7522 37.8032L89.7477 37.8055C87.1171 39.1314 84.1669 39.9315 80.8745 40.182C81.6655 37.6207 83.029 35.566 84.9433 33.9579L84.9501 33.9521L84.957 33.9462Z" fill="#3BA4F3"/>
<path fill-rule="evenodd" clip-rule="evenodd" d="M125.424 22.8971C120.487 22.8971 115.807 24.8294 111.417 28.4836L111.41 28.4892L111.404 28.4949C109.189 30.3754 107.406 32.8813 106.021 35.9421C104.606 39.0689 103.913 42.5059 103.913 46.2249C103.913 51.5947 105.293 56.0128 108.295 59.2193L108.306 59.2311L108.317 59.2427C111.402 62.4206 115.759 63.8824 121.093 63.8824C123.778 63.8824 126.481 63.1735 129.185 61.8297C130.509 61.1837 131.609 60.5374 132.406 59.8797C133.112 59.2965 134.014 58.3526 134.014 57.0634C134.014 56.0143 133.731 55.0087 133.224 54.0654L133.224 54.0651C132.712 53.1089 131.775 52.039 130.261 52.039H129.65L127.911 53.361L127.886 53.3818C127.235 53.9154 126.283 54.4842 124.975 55.067L124.975 55.0672C123.806 55.5884 122.614 55.8432 121.382 55.8432C118.61 55.8432 116.737 55.007 115.471 53.5378C114.394 52.2484 113.679 50.4616 113.449 48.054C119.344 47.8179 124.464 46.4546 128.74 43.8846L128.745 43.8818C133.57 40.9611 136.252 36.9974 136.252 32.0129C136.252 29.1871 135.206 26.8269 133.01 25.1989C130.942 23.6172 128.365 22.8971 125.424 22.8971ZM125.136 30.7926C123.12 30.7926 120.829 31.7184 118.229 33.9464L118.222 33.9521L118.216 33.9578C116.302 35.5659 114.938 37.6206 114.147 40.182C117.439 39.9315 120.39 39.1314 123.02 37.8055L123.025 37.8032L123.029 37.801C126.307 36.1715 127.373 34.4301 127.373 32.7307C127.373 31.9472 127.143 31.6044 126.885 31.3962L126.837 31.3572L126.792 31.315C126.474 31.0198 125.987 30.7926 125.136 30.7926Z" fill="#3BA4F3"/>
</svg>
