<svg width="188" height="41" viewBox="0 0 188 41" fill="none" xmlns="http://www.w3.org/2000/svg">
<path d="M7.96 19.728C7.96 20.6613 8.464 21.408 9.472 21.968C10.5173 22.4907 11.768 22.9573 13.224 23.368C14.7173 23.7413 16.2107 24.1893 17.704 24.712C19.1973 25.2347 20.448 26.1307 21.456 27.4C22.5013 28.632 23.024 30.2 23.024 32.104C23.024 34.792 21.9787 36.9013 19.888 38.432C17.8347 39.9627 15.24 40.728 12.104 40.728C9.34133 40.728 6.97067 40.1493 4.992 38.992C3.01333 37.8347 1.576 36.2293 0.68 34.176L5.888 31.152C6.85867 33.84 8.93067 35.184 12.104 35.184C15.2773 35.184 16.864 34.1387 16.864 32.048C16.864 31.152 16.3413 30.424 15.296 29.864C14.288 29.304 13.0373 28.8373 11.544 28.464C10.088 28.0533 8.61333 27.5867 7.12 27.064C5.62667 26.5413 4.35733 25.6827 3.312 24.488C2.304 23.256 1.8 21.7067 1.8 19.84C1.8 17.264 2.77067 15.192 4.712 13.624C6.69067 12.056 9.136 11.272 12.048 11.272C14.3627 11.272 16.416 11.7947 18.208 12.84C20.0373 13.848 21.4373 15.2667 22.408 17.096L17.312 19.952C16.3413 17.824 14.5867 16.76 12.048 16.76C10.8907 16.76 9.92 17.0213 9.136 17.544C8.352 18.0293 7.96 18.7573 7.96 19.728ZM59.5028 12H65.8868L57.0948 40H51.1588L45.3348 21.128L39.4548 40H33.5188L24.7268 12H31.1107L36.5428 31.32L42.4228 12H48.1908L54.0148 31.32L59.5028 12ZM142.273 19.728C142.273 20.6613 142.777 21.408 143.785 21.968C144.83 22.4907 146.081 22.9573 147.537 23.368C149.03 23.7413 150.523 24.1893 152.017 24.712C153.51 25.2347 154.761 26.1307 155.769 27.4C156.814 28.632 157.337 30.2 157.337 32.104C157.337 34.792 156.291 36.9013 154.201 38.432C152.147 39.9627 149.553 40.728 146.417 40.728C143.654 40.728 141.283 40.1493 139.305 38.992C137.326 37.8347 135.889 36.2293 134.993 34.176L140.201 31.152C141.171 33.84 143.243 35.184 146.417 35.184C149.59 35.184 151.177 34.1387 151.177 32.048C151.177 31.152 150.654 30.424 149.609 29.864C148.601 29.304 147.35 28.8373 145.857 28.464C144.401 28.0533 142.926 27.5867 141.433 27.064C139.939 26.5413 138.67 25.6827 137.625 24.488C136.617 23.256 136.113 21.7067 136.113 19.84C136.113 17.264 137.083 15.192 139.025 13.624C141.003 12.056 143.449 11.272 146.361 11.272C148.675 11.272 150.729 11.7947 152.521 12.84C154.35 13.848 155.75 15.2667 156.721 17.096L151.625 19.952C150.654 17.824 148.899 16.76 146.361 16.76C145.203 16.76 144.233 17.0213 143.449 17.544C142.665 18.0293 142.273 18.7573 142.273 19.728ZM177.053 11.272C180.264 11.272 182.858 12.2987 184.837 14.352C186.816 16.4053 187.805 19.224 187.805 22.808V40H181.757V23.424C181.757 21.3333 181.197 19.728 180.077 18.608C178.957 17.488 177.426 16.928 175.485 16.928C173.357 16.928 171.64 17.6 170.333 18.944C169.026 20.2507 168.373 22.2667 168.373 24.992V40H162.325V0.799997H168.373V15.584C170.202 12.7093 173.096 11.272 177.053 11.272Z" fill="black"/>
<path d="M81.5965 40.784C76.9672 40.784 73.4765 39.2347 71.1245 36.136C68.7725 33 68.0072 29.3227 68.8285 25.104C69.6125 21.1093 71.5538 17.8053 74.6525 15.192C77.7512 12.5413 81.4472 11.216 85.7405 11.216C90.0712 11.216 93.3938 12.784 95.7085 15.92C98.0605 19.0187 98.8632 22.6213 98.1165 26.728C97.4445 30.6853 95.5218 34.0267 92.3485 36.752C89.2125 39.44 85.6285 40.784 81.5965 40.784ZM82.1005 33.728C84.2285 33.728 86.1325 33.0187 87.8125 31.6C89.5298 30.1813 90.5752 28.296 90.9485 25.944C91.3965 23.6293 91.0232 21.7813 89.8285 20.4C88.6338 18.9813 86.9725 18.272 84.8445 18.272C82.7538 18.272 80.8685 18.9813 79.1885 20.4C77.5458 21.7813 76.5005 23.648 76.0525 26C75.6418 28.352 76.0152 30.2373 77.1725 31.656C78.3672 33.0373 80.0098 33.728 82.1005 33.728ZM114.846 40.784C110.217 40.784 106.727 39.2347 104.375 36.136C102.023 33 101.257 29.3227 102.079 25.104C102.863 21.1093 104.804 17.8053 107.903 15.192C111.001 12.5413 114.697 11.216 118.991 11.216C123.321 11.216 126.644 12.784 128.959 15.92C131.311 19.0187 132.113 22.6213 131.367 26.728C130.695 30.6853 128.772 34.0267 125.599 36.752C122.463 39.44 118.879 40.784 114.846 40.784ZM115.351 33.728C117.479 33.728 119.383 33.0187 121.063 31.6C122.78 30.1813 123.825 28.296 124.199 25.944C124.647 23.6293 124.273 21.7813 123.079 20.4C121.884 18.9813 120.223 18.272 118.095 18.272C116.004 18.272 114.119 18.9813 112.439 20.4C110.796 21.7813 109.751 23.648 109.303 26C108.892 28.352 109.265 30.2373 110.423 31.656C111.617 33.0373 113.26 33.728 115.351 33.728Z" fill="white"/>
</svg>
